<svg height="512pt" viewBox="0 0 512 512" width="512pt" xmlns="http://www.w3.org/2000/svg"><path d="m456.832031 0h-401.664062c-30.421875 0-55.167969 24.746094-55.167969 55.164062v401.671876c0 30.417968 24.746094 55.164062 55.167969 55.164062h401.664062c30.421875 0 55.167969-24.746094 55.167969-55.164062v-401.671876c0-30.417968-24.746094-55.164062-55.167969-55.164062zm25.167969 456.835938c0 13.875-11.289062 25.164062-25.167969 25.164062h-401.664062c-13.878907 0-25.167969-11.289062-25.167969-25.164062v-401.671876c0-13.875 11.289062-25.164062 25.167969-25.164062h401.664062c13.878907 0 25.167969 11.289062 25.167969 25.164062zm0 0"/><path d="m167.632812 96.398438h-40.164062c-8.285156 0-15 6.71875-15 15v289.203124c0 8.28125 6.714844 15 15 15 8.28125 0 15-6.71875 15-15v-113.535156h25.164062c52.566407 0 95.335938-42.765625 95.335938-95.335937 0-52.566407-42.769531-95.332031-95.335938-95.332031zm0 160.667968h-25.164062v-130.667968h25.164062c36.027344 0 65.335938 29.308593 65.335938 65.332031 0 36.027343-29.308594 65.335937-65.335938 65.335937zm0 0"/><path d="m352.398438 321.332031h-21.421876c-9.445312 0-17.132812-7.683593-17.132812-17.132812 0-9.445313 7.6875-17.132813 17.132812-17.132813h42.84375c8.285157 0 15-6.714844 15-15s-6.714843-15-15-15h-42.84375c-25.988281 0-47.132812 21.144532-47.132812 47.132813s21.144531 47.132812 47.132812 47.132812h21.421876c9.449218 0 17.132812 7.6875 17.132812 17.136719 0 9.445312-7.683594 17.132812-17.132812 17.132812h-42.84375c-8.285157 0-15 6.714844-15 15 0 8.28125 6.714843 15 15 15h42.84375c25.992187 0 47.132812-21.144531 47.132812-47.132812 0-25.992188-21.140625-47.136719-47.132812-47.136719zm0 0"/></svg>