<?xml version="1.0" encoding="iso-8859-1"?>
<!-- Generator: Adobe Illustrator 19.0.0, SVG Export Plug-In . SVG Version: 6.00 Build 0)  -->
<svg version="1.1" id="Capa_1" xmlns="http://www.w3.org/2000/svg" xmlns:xlink="http://www.w3.org/1999/xlink" x="0px" y="0px"
	 viewBox="0 0 512 512" style="enable-background:new 0 0 512 512;" xml:space="preserve">
<g>
	<g>
		<path d="M467,0H45C20.187,0,0,20.187,0,45v422c0,24.813,20.187,45,45,45h422c24.813,0,45-20.187,45-45V45
			C512,20.187,491.813,0,467,0z M482,467c0,8.271-6.729,15-15,15H45c-8.271,0-15-6.729-15-15V45c0-8.271,6.729-15,15-15h422
			c8.271,0,15,6.729,15,15V467z"/>
	</g>
</g>
<g>
	<g>
		<path d="M256,361H151V136c0-8.284-6.716-15-15-15s-15,6.716-15,15v240c0,8.284,6.716,15,15,15h120c8.284,0,15-6.716,15-15
			S264.284,361,256,361z"/>
	</g>
</g>
<g>
	<g>
		<path d="M376,211c-16.871,0-32.456,5.603-45,15.041V226c0-8.284-6.716-15-15-15s-15,6.716-15,15v150c0,8.284,6.716,15,15,15
			s15-6.716,15-15v-90c0-24.813,20.187-45,45-45c8.284,0,15-6.716,15-15S384.284,211,376,211z"/>
	</g>
</g>
<g>
</g>
<g>
</g>
<g>
</g>
<g>
</g>
<g>
</g>
<g>
</g>
<g>
</g>
<g>
</g>
<g>
</g>
<g>
</g>
<g>
</g>
<g>
</g>
<g>
</g>
<g>
</g>
<g>
</g>
</svg>
